<?xml version="1.0" encoding="UTF-8" standalone="no"?>
<!DOCTYPE svg PUBLIC "-//W3C//DTD SVG 1.1//EN"
 "http://www.w3.org/Graphics/SVG/1.1/DTD/svg11.dtd">
<!-- Generated by graphviz version 2.40.1 (20161225.0304)
 -->
<!-- Title: dependencies Pages: 1 -->
<svg width="958pt" height="284pt"
 viewBox="0.00 0.00 958.00 284.00" xmlns="http://www.w3.org/2000/svg" xmlns:xlink="http://www.w3.org/1999/xlink">
<g id="graph0" class="graph" transform="scale(1 1) rotate(0) translate(4 280)">
<title>dependencies</title>
<polygon fill="#ffffff" stroke="transparent" points="-4,4 -4,-280 954,-280 954,4 -4,4"/>
<text text-anchor="start" x="454.0091" y="-42.4" font-family="sans-serif" font-weight="bold" font-size="14.00" fill="#000000">Legend</text>
<polygon fill="#ffffb3" stroke="transparent" points="241,-10 241,-30 261,-30 261,-10 241,-10"/>
<text text-anchor="start" x="264.629" y="-15.4" font-family="sans-serif" font-size="14.00" fill="#000000"> &#160;Declarations</text>
<polygon fill="#8dd3c7" stroke="transparent" points="354,-10 354,-30 374,-30 374,-10 354,-10"/>
<text text-anchor="start" x="377.7251" y="-15.4" font-family="sans-serif" font-size="14.00" fill="#000000"> &#160;Module</text>
<polygon fill="#80b1d3" stroke="transparent" points="440,-10 440,-30 460,-30 460,-10 440,-10"/>
<text text-anchor="start" x="463.7812" y="-15.4" font-family="sans-serif" font-size="14.00" fill="#000000"> &#160;Bootstrap</text>
<polygon fill="#fdb462" stroke="transparent" points="537,-10 537,-30 557,-30 557,-10 537,-10"/>
<text text-anchor="start" x="560.6732" y="-15.4" font-family="sans-serif" font-size="14.00" fill="#000000"> &#160;Providers</text>
<polygon fill="#fb8072" stroke="transparent" points="633,-10 633,-30 653,-30 653,-10 633,-10"/>
<text text-anchor="start" x="656.7258" y="-15.4" font-family="sans-serif" font-size="14.00" fill="#000000"> &#160;Exports</text>
<g id="clust1" class="cluster">
<title>cluster_AppModule</title>
<polygon fill="none" stroke="#000000" stroke-dasharray="1,5" points="8,-70 8,-268 942,-268 942,-70 8,-70"/>
</g>
<g id="clust2" class="cluster">
<title>cluster_AppModule_declarations</title>
<polygon fill="none" stroke="#000000" points="458,-78 458,-130 934,-130 934,-78 458,-78"/>
</g>
<g id="clust6" class="cluster">
<title>cluster_AppModule_imports</title>
<polygon fill="none" stroke="#000000" points="112,-78 112,-130 450,-130 450,-78 112,-78"/>
</g>
<g id="clust8" class="cluster">
<title>cluster_AppModule_bootstrap</title>
<polygon fill="none" stroke="#000000" points="327,-208 327,-260 451,-260 451,-208 327,-208"/>
</g>
<g id="clust9" class="cluster">
<title>cluster_AppModule_providers</title>
<polygon fill="none" stroke="#000000" points="16,-78 16,-130 104,-130 104,-78 16,-78"/>
</g>
<!-- AppComponent -->
<g id="node1" class="node">
<title>AppComponent</title>
<polygon fill="#ffffb3" stroke="#000000" points="925.9399,-122 820.0601,-122 820.0601,-86 925.9399,-86 925.9399,-122"/>
<text text-anchor="middle" x="873" y="-99.8" font-family="Times,serif" font-size="14.00" fill="#000000">AppComponent</text>
</g>
<!-- AppModule -->
<g id="node4" class="node">
<title>AppModule</title>
<polygon fill="#8dd3c7" stroke="#000000" points="430.6571,-187 427.6571,-191 406.6571,-191 403.6571,-187 347.3429,-187 347.3429,-151 430.6571,-151 430.6571,-187"/>
<text text-anchor="middle" x="389" y="-164.8" font-family="Times,serif" font-size="14.00" fill="#000000">AppModule</text>
</g>
<!-- AppComponent&#45;&gt;AppModule -->
<g id="edge1" class="edge">
<title>AppComponent&#45;&gt;AppModule</title>
<path fill="none" stroke="#000000" d="M873,-122.2921C873,-144.2057 873,-178 873,-178 873,-178 440.6845,-178 440.6845,-178"/>
<polygon fill="#000000" stroke="#000000" points="440.6845,-174.5001 430.6845,-178 440.6844,-181.5001 440.6845,-174.5001"/>
</g>
<!-- DebtsHolderComponent -->
<g id="node2" class="node">
<title>DebtsHolderComponent</title>
<polygon fill="#ffffb3" stroke="#000000" points="802.3613,-122 649.6387,-122 649.6387,-86 802.3613,-86 802.3613,-122"/>
<text text-anchor="middle" x="726" y="-99.8" font-family="Times,serif" font-size="14.00" fill="#000000">DebtsHolderComponent</text>
</g>
<!-- DebtsHolderComponent&#45;&gt;AppModule -->
<g id="edge2" class="edge">
<title>DebtsHolderComponent&#45;&gt;AppModule</title>
<path fill="none" stroke="#000000" d="M726,-122.1061C726,-141.3391 726,-169 726,-169 726,-169 440.6608,-169 440.6608,-169"/>
<polygon fill="#000000" stroke="#000000" points="440.6608,-165.5001 430.6608,-169 440.6608,-172.5001 440.6608,-165.5001"/>
</g>
<!-- IndividualDebtComponent -->
<g id="node3" class="node">
<title>IndividualDebtComponent</title>
<polygon fill="#ffffb3" stroke="#000000" points="632.0912,-122 465.9088,-122 465.9088,-86 632.0912,-86 632.0912,-122"/>
<text text-anchor="middle" x="549" y="-99.8" font-family="Times,serif" font-size="14.00" fill="#000000">IndividualDebtComponent</text>
</g>
<!-- IndividualDebtComponent&#45;&gt;AppModule -->
<g id="edge3" class="edge">
<title>IndividualDebtComponent&#45;&gt;AppModule</title>
<path fill="none" stroke="#000000" d="M549,-122.027C549,-138.3976 549,-160 549,-160 549,-160 441.0381,-160 441.0381,-160"/>
<polygon fill="#000000" stroke="#000000" points="441.0382,-156.5001 431.0381,-160 441.0381,-163.5001 441.0382,-156.5001"/>
</g>
<!-- AppComponent  -->
<g id="node8" class="node">
<title>AppComponent </title>
<polygon fill="#80b1d3" stroke="#000000" points="443.439,-252 334.561,-252 334.561,-216 443.439,-216 443.439,-252"/>
<text text-anchor="middle" x="389" y="-229.8" font-family="Times,serif" font-size="14.00" fill="#000000">AppComponent </text>
</g>
<!-- AppModule&#45;&gt;AppComponent  -->
<g id="edge7" class="edge">
<title>AppModule&#45;&gt;AppComponent </title>
<path fill="none" stroke="#000000" stroke-dasharray="1,5" d="M389,-187.1061C389,-187.1061 389,-205.991 389,-205.991"/>
<polygon fill="#000000" stroke="#000000" points="385.5001,-205.9909 389,-215.991 392.5001,-205.991 385.5001,-205.9909"/>
</g>
<!-- BrowserModule -->
<g id="node5" class="node">
<title>BrowserModule</title>
<polygon fill="#8dd3c7" stroke="#000000" points="442.4734,-122 439.4734,-126 418.4734,-126 415.4734,-122 335.5266,-122 335.5266,-86 442.4734,-86 442.4734,-122"/>
<text text-anchor="middle" x="389" y="-99.8" font-family="Times,serif" font-size="14.00" fill="#000000">BrowserModule</text>
</g>
<!-- BrowserModule&#45;&gt;AppModule -->
<g id="edge4" class="edge">
<title>BrowserModule&#45;&gt;AppModule</title>
<path fill="none" stroke="#000000" d="M389,-122.1061C389,-122.1061 389,-140.991 389,-140.991"/>
<polygon fill="#000000" stroke="#000000" points="385.5001,-140.9909 389,-150.991 392.5001,-140.991 385.5001,-140.9909"/>
</g>
<!-- FormsModule -->
<g id="node6" class="node">
<title>FormsModule</title>
<polygon fill="#8dd3c7" stroke="#000000" points="317.8288,-122 314.8288,-126 293.8288,-126 290.8288,-122 222.1712,-122 222.1712,-86 317.8288,-86 317.8288,-122"/>
<text text-anchor="middle" x="270" y="-99.8" font-family="Times,serif" font-size="14.00" fill="#000000">FormsModule</text>
</g>
<!-- FormsModule&#45;&gt;AppModule -->
<g id="edge5" class="edge">
<title>FormsModule&#45;&gt;AppModule</title>
<path fill="none" stroke="#000000" d="M270,-122.027C270,-138.3976 270,-160 270,-160 270,-160 337.0451,-160 337.0451,-160"/>
<polygon fill="#000000" stroke="#000000" points="337.0451,-163.5001 347.0451,-160 337.045,-156.5001 337.0451,-163.5001"/>
</g>
<!-- HttpModule -->
<g id="node7" class="node">
<title>HttpModule</title>
<polygon fill="#8dd3c7" stroke="#000000" points="204.4387,-122 201.4387,-126 180.4387,-126 177.4387,-122 119.5613,-122 119.5613,-86 204.4387,-86 204.4387,-122"/>
<text text-anchor="middle" x="162" y="-99.8" font-family="Times,serif" font-size="14.00" fill="#000000">HttpModule</text>
</g>
<!-- HttpModule&#45;&gt;AppModule -->
<g id="edge6" class="edge">
<title>HttpModule&#45;&gt;AppModule</title>
<path fill="none" stroke="#000000" d="M162,-122.1061C162,-141.3391 162,-169 162,-169 162,-169 337.1002,-169 337.1002,-169"/>
<polygon fill="#000000" stroke="#000000" points="337.1002,-172.5001 347.1002,-169 337.1001,-165.5001 337.1002,-172.5001"/>
</g>
<!-- Utility -->
<g id="node9" class="node">
<title>Utility</title>
<ellipse fill="#fdb462" stroke="#000000" cx="60" cy="-104" rx="36.011" ry="18"/>
<text text-anchor="middle" x="60" y="-99.8" font-family="Times,serif" font-size="14.00" fill="#000000">Utility</text>
</g>
<!-- Utility&#45;&gt;AppModule -->
<g id="edge8" class="edge">
<title>Utility&#45;&gt;AppModule</title>
<path fill="none" stroke="#000000" d="M60,-122.2921C60,-144.2057 60,-178 60,-178 60,-178 337.3319,-178 337.3319,-178"/>
<polygon fill="#000000" stroke="#000000" points="337.332,-181.5001 347.3319,-178 337.3319,-174.5001 337.332,-181.5001"/>
</g>
</g>
</svg>
